<svg width="24" height="28" viewBox="0 0 24 28" fill="none" xmlns="http://www.w3.org/2000/svg">
<path fill-rule="evenodd" clip-rule="evenodd" d="M23.2637 7.60008C23.0363 7.60008 22.786 7.60297 22.5561 7.60562C22.3609 7.60788 22.1805 7.60996 22.0413 7.60996C21.8445 7.60996 21.6215 7.60807 21.3706 7.60594H21.3706C21.0481 7.60321 20.6796 7.60008 20.2616 7.60008C18.4721 7.59021 16.9955 6.10872 16.9955 4.30132V1.12107C16.9955 0.874155 16.7999 0.666748 16.5456 0.666748H11.3238C8.88888 0.666748 6.91357 2.67169 6.91357 5.12107V5.98012H9.63212C10.2196 5.98012 10.7318 6.22035 11.0973 6.59708C11.8374 6.24266 12.7762 6.31478 13.4685 7.04206L15.4484 9.12175L17.4041 11.176L17.4049 11.1768L17.4052 11.1772C18.0479 11.8517 18.1176 12.7696 17.7776 13.4962C18.1573 13.8695 18.3902 14.3895 18.3902 14.9579V20.4198H19.3033C21.7382 20.4198 23.7037 18.4347 23.7037 15.9853V8.04453C23.7037 7.79761 23.5081 7.60008 23.2637 7.60008ZM16.7902 20.4198V14.9579C16.7902 14.7936 16.7036 14.6512 16.5736 14.5743C16.5083 14.5356 16.4319 14.5135 16.3501 14.5135C16.2108 14.5135 16.0629 14.5145 15.9164 14.516L15.9146 14.516L15.6426 14.519H15.6425H15.6424C15.4473 14.5213 15.2669 14.5233 15.1278 14.5233C14.931 14.5233 14.7079 14.5214 14.4571 14.5193H14.457C14.1684 14.5169 13.843 14.5141 13.4782 14.5136L13.4635 14.5135L13.348 14.5135C11.5585 14.5036 10.0819 13.0221 10.0819 11.2147V11.0785V8.47509V8.03444C10.0819 7.94865 10.0583 7.86762 10.0168 7.7984C9.93894 7.66843 9.79802 7.58012 9.63212 7.58012H6.91357V15.768C6.91357 18.3359 8.98667 20.4198 11.5291 20.4198H16.7902ZM20.392 6.15734C21.0735 6.16426 22.0211 6.16722 22.8249 6.16426C23.2366 6.16327 23.4459 5.66648 23.1603 5.36722L21.2051 3.3135L19.2234 1.23191C18.931 0.924749 18.4196 1.13611 18.4196 1.56179V4.16524C18.4196 5.25759 19.3104 6.15734 20.392 6.15734ZM15.4831 11.4786L14.2896 10.2249L13.1058 8.98152L13.0234 8.89497L12.6237 8.47509L12.3096 8.14521C12.1265 7.95284 11.8575 7.96385 11.6819 8.10352C11.5772 8.18686 11.5058 8.31601 11.5058 8.47509V8.91036V8.91062V9.5079V9.62135V11.0785C11.5058 11.1243 11.5074 11.1697 11.5104 11.2147C11.5778 12.2012 12.3707 13.0006 13.348 13.0663L13.356 13.0668C13.3964 13.0694 13.4372 13.0706 13.4782 13.0706C13.7704 13.0736 14.1115 13.0758 14.4693 13.0772L14.7968 13.0782L14.8793 13.0784L15.1278 13.0787L15.4084 13.0786L15.4101 13.0786L15.626 13.0784L15.9111 13.0776C16.0606 13.0772 16.1834 13.0115 16.2655 12.9136C16.4095 12.7418 16.4284 12.4711 16.2465 12.2805L15.9084 11.9253L15.9069 11.9237L15.5379 11.5361L15.4831 11.4786Z" fill="#F0F3FF"/>
<path fill-rule="evenodd" clip-rule="evenodd" d="M15.6425 14.5191C15.8724 14.5164 16.1227 14.5135 16.3501 14.5135C16.5945 14.5135 16.7901 14.7111 16.7901 14.958V22.8987C16.7901 25.3481 14.8246 27.3333 12.3897 27.3333H4.61557C2.0731 27.3333 0 25.2493 0 22.6814V12.0345C0 9.58514 1.97531 7.5802 4.41022 7.5802H9.63207C9.88632 7.5802 10.0819 7.78761 10.0819 8.03452V11.2148C10.0819 13.0222 11.5585 14.5037 13.348 14.5135C13.766 14.5135 14.1345 14.5167 14.457 14.5194C14.7079 14.5215 14.9309 14.5234 15.1277 14.5234C15.2669 14.5234 15.4474 14.5213 15.6425 14.5191ZM15.9111 13.0776C15.1073 13.0806 14.1597 13.0776 13.4781 13.0707C12.3966 13.0707 11.5057 12.171 11.5057 11.0786V8.47516C11.5057 8.04948 12.0172 7.83812 12.3096 8.14528C12.8387 8.70097 13.5658 9.46477 14.2896 10.2251C15.0118 10.9838 15.7307 11.739 16.2465 12.2806C16.532 12.5799 16.3228 13.0766 15.9111 13.0776Z" fill="#F0F3FF"/>
</svg>
