<svg width="28" height="28" viewBox="0 0 28 28" fill="none" xmlns="http://www.w3.org/2000/svg">
<path d="M13.9992 0C6.26901 0 0 5.80067 0 12.9609C0 16.8586 1.8609 20.3567 4.80677 22.7321C5.05207 22.9299 5.20218 23.2249 5.20218 23.54V26.3099C5.20218 27.0702 6.01714 27.5524 6.68358 27.1864L9.62306 25.5719C9.85198 25.4462 10.1206 25.4165 10.3741 25.4796C11.5308 25.7673 12.7443 25.9202 14.0008 25.9202C21.731 25.9202 28 20.118 28 12.9609C27.9984 5.80067 21.7294 0 13.9992 0ZM15.473 17.3787L11.8514 13.6547L4.87851 17.472L12.5223 9.44067L16.1439 13.1662L23.1183 9.34733L15.473 17.3787Z" fill="#F0F3FF"/>
</svg>
