<svg width="176" height="48" viewBox="0 0 176 48" fill="none" xmlns="http://www.w3.org/2000/svg">
<g filter="url(#filter0_ii)">
<path d="M24.1474 0.559165C22.8178 -0.186388 21.179 -0.186388 19.8494 0.559165L19.0204 1.0232L2.14899 10.4725C0.81942 11.2181 0 12.5947 0 14.0843V33.9157C0 35.4068 0.81942 36.7834 2.15058 37.5275L2.93812 37.9683L19.851 47.4408C21.1806 48.1864 22.8194 48.1864 24.149 47.4408L41.0906 37.9528H41.0954L41.8526 37.529C43.1822 36.7834 44 35.4068 44 33.9172V14.0843C44 12.5947 43.1806 11.2165 41.851 10.4725L24.9764 1.0232L24.1474 0.559165ZM38.1812 34.5623L23.3328 42.8778C22.507 43.3403 21.4899 43.3403 20.6641 42.8778L5.81565 34.5623C4.98986 34.0998 4.4813 33.2444 4.4813 32.3194V15.6821C4.4813 14.7572 4.98986 13.9018 5.81565 13.4393L20.6641 5.12374C21.4899 4.66125 22.507 4.66125 23.3328 5.12374L38.1812 13.4393C39.007 13.9018 39.5155 14.7572 39.5155 15.6821V32.321C39.5171 33.2459 39.0086 34.0998 38.1812 34.5623Z" fill="#F0F3FF"/>
<path d="M7.21863 18.1322V29.8708C7.21863 31.3604 8.03805 32.7386 9.36761 33.4826L11.6999 34.7881V29.7347C11.6999 28.8236 12.2005 27.9822 13.0151 27.5259L20.6849 23.2304C21.4979 22.7757 22.0001 21.9327 22.0001 21.0216V17.4748L11.7015 23.2413V19.7285C11.7015 18.8035 12.2101 17.9481 13.0359 17.4857L20.6657 13.2103C21.4915 12.7478 22.5086 12.7478 23.3344 13.2103L32.2986 18.2328V14.686C32.2986 13.7749 31.798 12.9335 30.985 12.4772L24.1491 8.6473C22.8195 7.90175 21.1807 7.90175 19.8495 8.6473L9.36761 14.5205C8.03805 15.2645 7.21863 16.6411 7.21863 18.1322Z" fill="#F0F3FF"/>
<path d="M21.9904 36.9955V38.5809C21.9904 39.4533 22.9629 39.9978 23.7424 39.5616L35.0198 33.243C35.7978 32.8068 35.7978 31.7163 35.0198 31.2816L33.6042 30.4881C32.7911 30.0318 31.7884 30.0334 30.9753 30.4881L23.304 34.7867C22.491 35.243 21.9904 36.0844 21.9904 36.9955Z" fill="#F0F3FF"/>
<path d="M33.6042 27.9778L35.0199 28.7713C35.7978 29.2075 36.7703 28.6615 36.7703 27.7906V25.7519C36.7703 24.8409 36.2697 23.9994 35.4567 23.5431L34.041 22.7496C33.2631 22.3134 32.2906 22.8594 32.2906 23.7303V25.769C32.289 26.6816 32.7912 27.523 33.6042 27.9778Z" fill="#F0F3FF"/>
<path d="M56 4.36963H68.3328V6.83173H58.9553V14.3856H67.62V16.8132H58.9553V27.0979H56V4.36963Z" fill="#B4C0FF"/>
<path d="M72.5446 4.36963H75.4999V24.6333H85.2847V27.0954H72.5446V4.36963Z" fill="#B4C0FF"/>
<path d="M100.439 16.4411H91.5381V24.6333H101.459V27.0954H88.5828V4.36963H100.95V6.83174H91.5381V14.0135H100.439V16.4411Z" fill="#B4C0FF"/>
<path d="M117.835 27.0954L114.912 22.0726C113.723 20.1503 112.975 18.9032 112.262 17.5871H112.195C111.55 18.9032 110.904 20.1158 109.714 22.1047L106.963 27.0954H103.565L110.564 15.5982L103.836 4.36963H107.268L110.293 9.69803C111.142 11.1817 111.788 12.3277 112.399 13.5428H112.501C113.146 12.1946 113.723 11.1497 114.574 9.69803L117.699 4.36963H121.096L114.13 15.4282L121.265 27.0954H117.835Z" fill="#B4C0FF"/>
<path d="M136.555 16.4411H127.655V24.6333H137.576V27.0954H124.7V4.36963H137.067V6.83174H127.655V14.0135H136.555V16.4411Z" fill="#B4C0FF"/>
<path d="M140.462 25.3432C140.462 24.0961 141.311 23.2188 142.501 23.2188C143.69 23.2188 144.505 24.0961 144.505 25.3432C144.505 26.5558 143.723 27.4677 142.466 27.4677C141.276 27.4677 140.462 26.5582 140.462 25.3432Z" fill="#B4C0FF"/>
<path d="M151.265 4.36963V27.0954H148.31V4.36963H151.265Z" fill="#B4C0FF"/>
<path d="M176 15.4972C176 23.3198 171.21 27.4676 165.366 27.4676C159.319 27.4676 155.07 22.8145 155.07 15.9359C155.07 8.71965 159.59 4 165.704 4C171.957 4 176 8.75416 176 15.4972ZM158.231 15.8694C158.231 20.7246 160.881 25.0745 165.535 25.0745C170.224 25.0745 172.873 20.7936 172.873 15.6328C172.873 11.1152 170.494 6.3931 165.57 6.3931C160.677 6.3931 158.231 10.8786 158.231 15.8694Z" fill="#B4C0FF"/>
<path d="M62.1639 41.0892C61.779 41.2815 61.0066 41.4712 60.0157 41.4712C57.726 41.4737 56 40.0369 56 37.3899C56 34.8637 57.726 33.1533 60.2467 33.1533C61.2599 33.1533 61.8982 33.3677 62.1763 33.5131L61.923 34.3634C61.5257 34.1712 60.957 34.0282 60.2815 34.0282C58.3767 34.0282 57.1101 35.2383 57.1101 37.3554C57.1101 39.3295 58.255 40.5988 60.2343 40.5988C60.8725 40.5988 61.5257 40.4682 61.9478 40.2636L62.1639 41.0892Z" fill="#B4C0FF"/>
<path d="M63.4056 37.3678C63.4056 36.6852 63.3932 36.0986 63.3584 35.5613H64.2872L64.3245 36.6975H64.3716C64.6374 35.9187 65.2756 35.4282 65.9884 35.4282C66.1101 35.4282 66.1945 35.4405 66.2889 35.4652V36.4584C66.1796 36.4338 66.0728 36.4214 65.9263 36.4214C65.1788 36.4214 64.6473 36.9834 64.5033 37.7745C64.4784 37.9174 64.4561 38.085 64.4561 38.2649V41.3531H63.4056V37.3678Z" fill="#B4C0FF"/>
<path d="M68.0372 35.5588L69.3162 38.9821C69.4478 39.3641 69.5943 39.8201 69.6912 40.1676H69.716C69.8253 39.8201 69.9445 39.3765 70.091 38.9575L71.2483 35.5588H72.3708L70.7789 39.6895C70.019 41.6759 69.4999 42.6938 68.7773 43.3173C68.2582 43.7733 67.7392 43.9507 67.4734 44L67.2077 43.1152C67.4734 43.0314 67.8236 42.8638 68.1365 42.6001C68.4271 42.3734 68.7872 41.9667 69.0281 41.427C69.0753 41.3185 69.1125 41.2347 69.1125 41.1756C69.1125 41.1164 69.0877 41.0326 69.0405 40.8996L66.8824 35.5613H68.0372V35.5588Z" fill="#B4C0FF"/>
<path d="M73.332 37.4516C73.332 36.7098 73.3072 36.1109 73.2849 35.5613H74.2385L74.2857 36.5545H74.3105C74.7451 35.8472 75.433 35.4282 76.3842 35.4282C77.7948 35.4282 78.8577 36.6137 78.8577 38.3734C78.8577 40.4559 77.5787 41.4861 76.2029 41.4861C75.4305 41.4861 74.755 41.151 74.4049 40.5767H74.3801V43.724H73.3296V37.4516H73.332ZM74.3801 38.9945C74.3801 39.1497 74.4049 39.2927 74.4272 39.4258C74.6209 40.1553 75.2592 40.658 76.0191 40.658C77.1416 40.658 77.7923 39.7486 77.7923 38.4202C77.7923 37.2594 77.1764 36.2662 76.0564 36.2662C75.3337 36.2662 74.6582 36.7813 74.4521 37.5699C74.4148 37.7006 74.3801 37.8583 74.3801 38.0012V38.9945Z" fill="#B4C0FF"/>
<path d="M81.4702 33.8953V35.5588H82.9901V36.3598H81.4702V39.4849C81.4702 40.2021 81.6763 40.6112 82.2674 40.6112C82.5455 40.6112 82.7492 40.5742 82.8833 40.5397L82.9305 41.3309C82.7268 41.4147 82.399 41.4738 81.9892 41.4738C81.495 41.4738 81.0977 41.3185 80.8419 41.0302C80.5414 40.7197 80.4321 40.2046 80.4321 39.5219V36.3623H79.5281V35.5613H80.4321V34.1738L81.4702 33.8953Z" fill="#B4C0FF"/>
<path d="M89.3949 38.4079C89.3949 40.5496 87.8998 41.4837 86.4868 41.4837C84.9073 41.4837 83.6879 40.3352 83.6879 38.504C83.6879 36.5644 84.9669 35.4282 86.5836 35.4282C88.2624 35.4282 89.3949 36.6359 89.3949 38.4079ZM84.7633 38.4695C84.7633 39.7388 85.4984 40.695 86.5364 40.695C87.5497 40.695 88.3096 39.7486 88.3096 38.4449C88.3096 37.464 87.8154 36.2193 86.5613 36.2193C85.3071 36.2169 84.7633 37.3678 84.7633 38.4695Z" fill="#B4C0FF"/>
<path d="M100.178 37.8089C100.118 36.6826 100.046 35.332 100.059 34.3264H100.022C99.7434 35.2728 99.4057 36.2784 98.9959 37.3899L97.5605 41.3036H96.7633L95.4496 37.4614C95.0646 36.3252 94.7368 35.2827 94.5083 34.3264H94.4835C94.4587 35.332 94.3991 36.685 94.327 37.8927L94.1085 41.3529H93.1077L93.6739 33.2839H95.0125L96.4007 37.1853C96.7385 38.1786 97.0166 39.0658 97.2202 39.9038H97.255C97.4611 39.0905 97.7492 38.2032 98.1118 37.1853L99.5596 33.2839H100.898L101.405 41.3529H100.379L100.178 37.8089Z" fill="#B4C0FF"/>
<path d="M106.292 41.3531L106.208 40.6235H106.173C105.848 41.0795 105.219 41.4861 104.387 41.4861C103.205 41.4861 102.602 40.6605 102.602 39.8226C102.602 38.4227 103.856 37.6562 106.111 37.6685V37.5478C106.111 37.0696 105.979 36.207 104.785 36.207C104.241 36.207 103.675 36.3746 103.265 36.6383L103.024 35.9433C103.506 35.6328 104.206 35.4282 104.941 35.4282C106.727 35.4282 107.161 36.6383 107.161 37.7991V39.9655C107.161 40.4683 107.186 40.9587 107.258 41.3531H106.292ZM106.136 38.3956C104.979 38.3709 103.662 38.5755 103.662 39.6993C103.662 40.382 104.122 40.7049 104.663 40.7049C105.423 40.7049 105.905 40.2267 106.074 39.7363C106.108 39.6279 106.133 39.5096 106.133 39.4011V38.3956H106.136Z" fill="#B4C0FF"/>
<path d="M108.872 37.3678C108.872 36.6852 108.86 36.0986 108.823 35.5613H109.752L109.786 36.6975H109.836C110.102 35.9187 110.74 35.4282 111.453 35.4282C111.574 35.4282 111.659 35.4405 111.753 35.4652V36.4584C111.644 36.4338 111.535 36.4214 111.391 36.4214C110.643 36.4214 110.112 36.9834 109.968 37.7745C109.943 37.9174 109.92 38.085 109.92 38.2649V41.3531H108.872V37.3678Z" fill="#B4C0FF"/>
<path d="M113.914 38.2157H113.939C114.083 38.0111 114.289 37.7597 114.458 37.5576L116.171 35.5589H117.45L115.195 37.9421L117.766 41.3531H116.474L114.46 38.5755L113.916 39.1744V41.3531H112.866V32.8552H113.916V38.2157H113.914Z" fill="#B4C0FF"/>
<path d="M119.112 38.647C119.137 40.0715 120.053 40.658 121.113 40.658C121.873 40.658 122.333 40.5274 122.73 40.3598L122.911 41.114C122.536 41.2816 121.898 41.4738 120.969 41.4738C119.171 41.4738 118.098 40.3007 118.098 38.5533C118.098 36.8059 119.137 35.4282 120.838 35.4282C122.742 35.4282 123.249 37.0918 123.249 38.1565C123.249 38.3709 123.224 38.5385 123.214 38.647H119.112ZM122.223 37.8928C122.236 37.2224 121.945 36.1799 120.751 36.1799C119.678 36.1799 119.206 37.1608 119.122 37.8928H122.223Z" fill="#B4C0FF"/>
<path d="M125.842 33.8953V35.5588H127.362V36.3598H125.842V39.4849C125.842 40.2021 126.048 40.6112 126.639 40.6112C126.917 40.6112 127.121 40.5742 127.255 40.5397L127.302 41.3309C127.098 41.4147 126.771 41.4738 126.361 41.4738C125.867 41.4738 125.469 41.3185 125.214 41.0302C124.913 40.7197 124.804 40.2046 124.804 39.5219V36.3623H123.9V35.5613H124.804V34.1738L125.842 33.8953Z" fill="#B4C0FF"/>
<path d="M129.736 33.9322C129.748 34.292 129.482 34.5779 129.06 34.5779C128.685 34.5779 128.422 34.2896 128.422 33.9322C128.422 33.5625 128.7 33.2742 129.085 33.2742C129.482 33.2742 129.736 33.5601 129.736 33.9322ZM128.554 41.353V35.5588H129.614V41.353H128.554Z" fill="#B4C0FF"/>
<path d="M131.378 37.1288C131.378 36.5299 131.365 36.0394 131.328 35.5613H132.269L132.329 36.52H132.354C132.644 35.9704 133.317 35.4307 134.283 35.4307C135.09 35.4307 136.344 35.9088 136.344 37.8977V41.358H135.284V38.0185C135.284 37.0844 134.934 36.3056 133.933 36.3056C133.233 36.3056 132.691 36.796 132.51 37.3826C132.463 37.5132 132.438 37.6931 132.438 37.8731V41.3555H131.378V37.1288Z" fill="#B4C0FF"/>
<path d="M143.099 35.5588C143.074 35.9778 143.05 36.4436 143.05 37.1509V40.5151C143.05 41.8435 142.784 42.6568 142.218 43.1596C141.651 43.687 140.832 43.8546 140.094 43.8546C139.394 43.8546 138.622 43.687 138.152 43.3764L138.418 42.5755C138.803 42.8145 139.406 43.0314 140.132 43.0314C141.217 43.0314 142.014 42.4695 142.014 41.008V40.3623H141.989C141.664 40.902 141.036 41.3308 140.132 41.3308C138.684 41.3308 137.648 40.1109 137.648 38.5064C137.648 36.5446 138.94 35.4307 140.278 35.4307C141.291 35.4307 141.845 35.9581 142.098 36.4362H142.123L142.173 35.5613H143.099V35.5588ZM142.002 37.8459C142.002 37.666 141.989 37.5108 141.942 37.3678C141.748 36.7566 141.229 36.2538 140.459 36.2538C139.446 36.2538 138.723 37.1041 138.723 38.4448C138.723 39.581 139.302 40.5274 140.449 40.5274C141.1 40.5274 141.691 40.1207 141.922 39.4504C141.982 39.2705 142.007 39.0684 142.007 38.8885V37.8459H142.002Z" fill="#B4C0FF"/>
<path d="M152.494 41.353C152.266 41.1262 152.047 40.897 151.734 40.5618C151.034 41.2076 150.251 41.4836 149.357 41.4836C147.778 41.4836 146.862 40.4312 146.862 39.2211C146.862 38.1195 147.525 37.3653 148.453 36.8625V36.8256C148.031 36.2981 147.778 35.7116 147.778 35.1373C147.778 34.1564 148.491 33.1509 149.839 33.1509C150.852 33.1509 151.637 33.8212 151.637 34.8638C151.637 35.714 151.143 36.3844 149.852 37.0178V37.0548C150.54 37.8459 151.312 38.7307 151.828 39.3049C152.203 38.743 152.457 37.9642 152.613 36.9463H153.579C153.361 38.2156 153.013 39.2211 152.41 39.926C152.844 40.3819 153.266 40.8354 153.748 41.3505H152.494V41.353ZM151.215 39.9654C150.733 39.438 149.827 38.4571 148.923 37.4269C148.488 37.7029 147.872 38.218 147.872 39.0658C147.872 39.9876 148.56 40.6949 149.536 40.6949C150.239 40.6949 150.83 40.3844 151.215 39.9654ZM148.744 35.0437C148.744 35.6179 149.01 36.0615 149.36 36.4928C150.179 36.027 150.711 35.5957 150.711 34.913C150.711 34.4226 150.433 33.8705 149.77 33.8705C149.092 33.873 148.744 34.4226 148.744 35.0437Z" fill="#B4C0FF"/>
<path d="M157.258 33.3801C157.764 33.2963 158.427 33.2249 159.272 33.2249C160.31 33.2249 161.07 33.4639 161.551 33.8952C161.998 34.2772 162.264 34.8638 162.264 35.5834C162.264 36.313 162.046 36.8872 161.636 37.3062C161.082 37.8928 160.176 38.191 159.152 38.191C158.839 38.191 158.549 38.1786 158.308 38.1195V41.3505H157.26V33.3801H157.258ZM158.308 37.2717C158.536 37.3308 158.827 37.3555 159.177 37.3555C160.444 37.3555 161.216 36.7443 161.216 35.6327C161.216 34.568 160.456 34.0529 159.299 34.0529C158.839 34.0529 158.492 34.0899 158.31 34.1367V37.2717H158.308Z" fill="#B4C0FF"/>
<path d="M163.675 33.3924C164.206 33.284 164.966 33.2249 165.689 33.2249C166.811 33.2249 167.534 33.4294 168.04 33.8829C168.45 34.2427 168.679 34.7923 168.679 35.4159C168.679 36.4806 168.003 37.1879 167.146 37.4738V37.5107C167.775 37.7252 168.147 38.3019 168.341 39.1398C168.607 40.2661 168.8 41.0425 168.969 41.3555H167.884C167.752 41.1287 167.571 40.4337 167.34 39.4282C167.099 38.3142 166.665 37.8952 165.711 37.8607H164.723V41.3555H163.675V33.3924ZM164.723 37.0671H165.795C166.918 37.0671 167.628 36.4559 167.628 35.5342C167.628 34.4916 166.868 34.0382 165.758 34.0258C165.252 34.0258 164.889 34.0727 164.72 34.122V37.0671H164.723Z" fill="#B4C0FF"/>
</g>
<defs>
<filter id="filter0_ii" x="-1" y="-1" width="178" height="50" filterUnits="userSpaceOnUse" color-interpolation-filters="sRGB">
<feFlood flood-opacity="0" result="BackgroundImageFix"/>
<feBlend mode="normal" in="SourceGraphic" in2="BackgroundImageFix" result="shape"/>
<feColorMatrix in="SourceAlpha" type="matrix" values="0 0 0 0 0 0 0 0 0 0 0 0 0 0 0 0 0 0 127 0" result="hardAlpha"/>
<feOffset dx="-1" dy="-1"/>
<feGaussianBlur stdDeviation="0.5"/>
<feComposite in2="hardAlpha" operator="arithmetic" k2="-1" k3="1"/>
<feColorMatrix type="matrix" values="0 0 0 0 0.399375 0 0 0 0 0.445312 0 0 0 0 0.675 0 0 0 0.4 0"/>
<feBlend mode="normal" in2="shape" result="effect1_innerShadow"/>
<feColorMatrix in="SourceAlpha" type="matrix" values="0 0 0 0 0 0 0 0 0 0 0 0 0 0 0 0 0 0 127 0" result="hardAlpha"/>
<feOffset dx="1" dy="1"/>
<feGaussianBlur stdDeviation="1"/>
<feComposite in2="hardAlpha" operator="arithmetic" k2="-1" k3="1"/>
<feColorMatrix type="matrix" values="0 0 0 0 1 0 0 0 0 1 0 0 0 0 1 0 0 0 0.32 0"/>
<feBlend mode="normal" in2="effect1_innerShadow" result="effect2_innerShadow"/>
</filter>
</defs>
</svg>
