<svg width="28" height="28" viewBox="0 0 28 28" fill="none" xmlns="http://www.w3.org/2000/svg">
<path d="M25.906 6.47484C21.7175 -0.0002141 13.1661 -1.92523 6.53437 2.0998C0.0771604 6.12483 -2.01707 14.8749 2.17139 21.3499L2.52043 21.875L1.56818 25.4557C1.37062 26.1987 2.05028 26.8774 2.79292 26.6788L6.35985 25.725L6.88341 26.075C9.15215 27.3 11.5954 28 14.0387 28C16.6565 28 19.2743 27.3 21.543 25.9C28.0002 21.7 29.9199 13.1249 25.906 6.47484ZM22.2411 19.9499C21.543 20.9999 20.6704 21.7 19.4488 21.875C18.7507 21.875 17.8781 22.225 14.3877 20.8249C11.4209 19.4249 8.97763 17.1499 7.23244 14.5249C6.18533 13.2999 5.66177 11.7249 5.48725 10.1499C5.48725 8.74985 6.01081 7.52484 6.88341 6.64984C7.23244 6.29983 7.58148 6.12483 7.93052 6.12483H8.80311C9.15215 6.12483 9.50119 6.12483 9.67571 6.82484C10.0247 7.69985 10.8973 9.79986 10.8973 9.97486C11.0719 10.1499 11.0719 10.4999 10.8973 10.6749C11.0719 11.0249 10.8973 11.3749 10.7228 11.5499C10.5483 11.7249 10.3738 12.0749 10.1993 12.2499C9.85023 12.4249 9.67571 12.7749 9.85023 13.1249C10.5483 14.1749 11.4209 15.2249 12.2935 16.0999C13.3406 16.9749 14.3877 17.6749 15.6094 18.1999C15.9584 18.3749 16.3074 18.3749 16.482 18.0249C16.6565 17.6749 17.5291 16.7999 17.8781 16.4499C18.2271 16.0999 18.4017 16.0999 18.7507 16.2749L21.543 17.6749C21.892 17.8499 22.2411 18.0249 22.4156 18.1999C22.5901 18.7249 22.5901 19.4249 22.2411 19.9499Z" fill="#F0F3FF"/>
</svg>
